<svg width="207" height="62" viewBox="0 0 207 62" fill="none" xmlns="http://www.w3.org/2000/svg">
<g clip-path="url(#clip0_2_1032)">
<path d="M22.7825 40.2624L28.2395 34.5204L34.4468 40.2624H45.0878L28.1713 23.6516L11.3911 40.2624H22.7825Z" fill="white"/>
<path d="M38.4033 13.6031L30.3543 21.806L35.6749 27.2745L38.4033 24.5402L53.3418 39.4421C49.9312 48.5336 41.2 55.0276 30.9 55.0276C17.6669 55.0276 6.95762 44.2955 6.95762 31.0342C7.02583 17.7729 17.7351 7.04079 30.9682 7.04079C42.7007 7.04079 52.5232 15.5854 54.5014 26.7277L61.7318 34.3837C61.8683 33.29 61.9365 32.1279 61.9365 31.0342C61.9365 22.763 58.7305 14.9702 52.8643 9.09151C46.998 3.21279 39.2219 0 30.9682 0C22.6464 0 14.9384 3.21279 9.07219 9.09151C3.20596 14.9702 0 22.6946 0 31.0342C0 39.3738 3.20596 47.0981 9.07219 52.9768C14.9384 58.8556 22.7146 62.0684 30.9682 62.0684C39.2219 62.0684 46.998 58.8556 52.8643 52.9768C56.4795 49.3539 59.0716 45.0474 60.504 40.3308C60.7769 39.5105 60.9815 38.6218 61.1861 37.8015L54.9106 31.1709L38.4033 13.6031Z" fill="white"/>
</g>
<path d="M84.2686 36.0298L87.4886 19.9298H92.0426L89.5586 32.4188H97.2406L96.5046 36.0298H84.2686ZM98.3067 36.0298L101.527 19.9298H106.081L102.861 36.0298H98.3067ZM112.127 26.9908H119.556L118.843 30.5098H111.437L112.127 26.9908ZM110.655 36.0298H106.101L109.321 19.9298H121.925L121.212 23.4488H113.162L110.655 36.0298ZM126.999 26.1628H134.474L133.807 29.5668H126.332L126.999 26.1628ZM126.056 32.5108H134.497L133.761 36.0298H120.858L124.078 19.9298H136.682L135.969 23.4488H127.85L126.056 32.5108ZM139.715 36.0298L142.222 23.5408H137.277L138.013 19.9298H152.434L151.698 23.5408H146.776L144.269 36.0298H139.715ZM159.38 36.3518C157.724 36.3518 156.298 36.0528 155.102 35.4548C153.906 34.8415 152.986 34.0058 152.342 32.9478C151.698 31.8898 151.376 30.6631 151.376 29.2678C151.376 27.8571 151.621 26.5691 152.112 25.4038C152.602 24.2231 153.292 23.2035 154.182 22.3448C155.071 21.4708 156.129 20.7961 157.356 20.3208C158.598 19.8455 159.955 19.6078 161.427 19.6078C163.083 19.6078 164.509 19.9145 165.705 20.5278C166.901 21.1258 167.821 21.9538 168.465 23.0118C169.109 24.0698 169.431 25.2965 169.431 26.6918C169.431 28.1025 169.185 29.3981 168.695 30.5788C168.204 31.7441 167.514 32.7638 166.625 33.6378C165.735 34.4965 164.67 35.1635 163.428 35.6388C162.201 36.1141 160.852 36.3518 159.38 36.3518ZM159.771 32.5798C160.568 32.5798 161.273 32.4341 161.887 32.1428C162.515 31.8515 163.044 31.4451 163.474 30.9238C163.918 30.3871 164.256 29.7815 164.486 29.1068C164.716 28.4321 164.831 27.7191 164.831 26.9678C164.831 26.2471 164.677 25.6185 164.371 25.0818C164.079 24.5451 163.65 24.1311 163.083 23.8398C162.531 23.5331 161.848 23.3798 161.036 23.3798C160.254 23.3798 159.548 23.5255 158.92 23.8168C158.291 24.1081 157.754 24.5221 157.31 25.0588C156.88 25.5801 156.551 26.1781 156.321 26.8528C156.091 27.5275 155.976 28.2405 155.976 28.9918C155.976 29.6971 156.121 30.3258 156.413 30.8778C156.719 31.4145 157.149 31.8361 157.701 32.1428C158.268 32.4341 158.958 32.5798 159.771 32.5798ZM177.98 36.3518C176.37 36.3518 175.02 36.0451 173.932 35.4318C172.858 34.8031 172.099 33.9291 171.655 32.8098C171.21 31.6751 171.133 30.3565 171.425 28.8538L173.219 19.9298H177.773L176.002 28.7848C175.879 29.4288 175.841 29.9885 175.887 30.4638C175.933 30.9391 176.063 31.3378 176.278 31.6598C176.508 31.9818 176.807 32.2195 177.175 32.3728C177.558 32.5108 178.01 32.5798 178.532 32.5798C179.16 32.5798 179.705 32.4571 180.165 32.2118C180.64 31.9511 181.031 31.5448 181.338 30.9928C181.66 30.4255 181.905 29.6895 182.074 28.7848L183.845 19.9298H188.33L186.513 29.0608C186.037 31.4528 185.087 33.2698 183.661 34.5118C182.235 35.7385 180.341 36.3518 177.98 36.3518ZM188.218 36.0298L191.438 19.9298H198.315C200.385 19.9298 201.98 20.3821 203.099 21.2868C204.234 22.1915 204.801 23.4488 204.801 25.0588C204.801 26.4081 204.471 27.5888 203.812 28.6008C203.168 29.5975 202.248 30.3718 201.052 30.9238C199.856 31.4758 198.445 31.7518 196.82 31.7518H191.599L194.014 29.7968L192.772 36.0298H188.218ZM198.315 36.0298L195.026 30.1648H199.741L203.076 36.0298H198.315ZM193.899 30.3258L192.312 28.2328H197.027C198.039 28.2328 198.821 27.9951 199.373 27.5198C199.925 27.0445 200.201 26.3698 200.201 25.4958C200.201 24.8211 199.979 24.3228 199.534 24.0008C199.089 23.6788 198.468 23.5178 197.671 23.5178H193.278L195.716 21.3558L193.899 30.3258Z" fill="white"/>
<path d="M87.3006 51.2724C86.8793 51.2724 86.4873 51.203 86.1246 51.0644C85.7673 50.9204 85.4553 50.7204 85.1886 50.4644C84.9273 50.203 84.722 49.9017 84.5726 49.5604C84.4286 49.2137 84.3566 48.835 84.3566 48.4244C84.3566 48.0137 84.4286 47.6377 84.5726 47.2964C84.722 46.9497 84.9273 46.6484 85.1886 46.3924C85.4553 46.131 85.7673 45.931 86.1246 45.7924C86.482 45.6484 86.874 45.5764 87.3006 45.5764C87.722 45.5764 88.1113 45.6484 88.4686 45.7924C88.826 45.931 89.1353 46.1284 89.3966 46.3844C89.6633 46.6404 89.8686 46.9417 90.0126 47.2884C90.162 47.635 90.2366 48.0137 90.2366 48.4244C90.2366 48.835 90.162 49.2137 90.0126 49.5604C89.8686 49.907 89.6633 50.2084 89.3966 50.4644C89.1353 50.7204 88.826 50.9204 88.4686 51.0644C88.1113 51.203 87.722 51.2724 87.3006 51.2724ZM87.3006 50.7444C87.6366 50.7444 87.946 50.6884 88.2286 50.5764C88.5166 50.459 88.7646 50.2964 88.9726 50.0884C89.186 49.875 89.3513 49.6297 89.4686 49.3524C89.586 49.0697 89.6446 48.7604 89.6446 48.4244C89.6446 48.0884 89.586 47.7817 89.4686 47.5044C89.3513 47.2217 89.186 46.9764 88.9726 46.7684C88.7646 46.555 88.5166 46.3924 88.2286 46.2804C87.946 46.163 87.6366 46.1044 87.3006 46.1044C86.9646 46.1044 86.6526 46.163 86.3646 46.2804C86.0766 46.3924 85.826 46.555 85.6126 46.7684C85.4046 46.9764 85.2393 47.2217 85.1166 47.5044C84.9993 47.7817 84.9406 48.0884 84.9406 48.4244C84.9406 48.755 84.9993 49.0617 85.1166 49.3444C85.2393 49.627 85.4046 49.875 85.6126 50.0884C85.826 50.2964 86.0766 50.459 86.3646 50.5764C86.6526 50.6884 86.9646 50.7444 87.3006 50.7444ZM93.6813 51.2644C93.3187 51.2644 92.9907 51.1817 92.6973 51.0164C92.404 50.8457 92.1693 50.603 91.9933 50.2884C91.8227 49.9684 91.7373 49.579 91.7373 49.1204C91.7373 48.6617 91.8227 48.275 91.9933 47.9604C92.164 47.6404 92.396 47.3977 92.6893 47.2324C92.9827 47.067 93.3133 46.9844 93.6813 46.9844C94.0813 46.9844 94.4387 47.075 94.7533 47.2564C95.0733 47.4324 95.324 47.683 95.5053 48.0084C95.6867 48.3284 95.7773 48.699 95.7773 49.1204C95.7773 49.547 95.6867 49.9204 95.5053 50.2404C95.324 50.5604 95.0733 50.811 94.7533 50.9924C94.4387 51.1737 94.0813 51.2644 93.6813 51.2644ZM91.5133 52.7764V47.0244H92.0573V48.2884L92.0013 49.1284L92.0813 49.9764V52.7764H91.5133ZM93.6413 50.7604C93.94 50.7604 94.2067 50.6937 94.4413 50.5604C94.676 50.4217 94.8627 50.2297 95.0013 49.9844C95.14 49.7337 95.2093 49.4457 95.2093 49.1204C95.2093 48.795 95.14 48.5097 95.0013 48.2644C94.8627 48.019 94.676 47.827 94.4413 47.6884C94.2067 47.5497 93.94 47.4804 93.6413 47.4804C93.3427 47.4804 93.0733 47.5497 92.8333 47.6884C92.5987 47.827 92.412 48.019 92.2733 48.2644C92.14 48.5097 92.0733 48.795 92.0733 49.1204C92.0733 49.4457 92.14 49.7337 92.2733 49.9844C92.412 50.2297 92.5987 50.4217 92.8333 50.5604C93.0733 50.6937 93.3427 50.7604 93.6413 50.7604ZM96.9977 51.2244V47.0244H99.9737V47.5204H97.4217L97.5657 47.3764V51.2244H96.9977ZM103.403 51.2244V50.2964L103.379 50.1444V48.5924C103.379 48.235 103.277 47.9604 103.075 47.7684C102.877 47.5764 102.581 47.4804 102.187 47.4804C101.915 47.4804 101.656 47.5257 101.411 47.6164C101.165 47.707 100.957 47.827 100.787 47.9764L100.531 47.5524C100.744 47.371 101 47.2324 101.299 47.1364C101.597 47.035 101.912 46.9844 102.243 46.9844C102.787 46.9844 103.205 47.1204 103.499 47.3924C103.797 47.659 103.947 48.067 103.947 48.6164V51.2244H103.403ZM101.955 51.2644C101.64 51.2644 101.365 51.2137 101.131 51.1124C100.901 51.0057 100.725 50.8617 100.603 50.6804C100.48 50.4937 100.419 50.2804 100.419 50.0404C100.419 49.8217 100.469 49.6244 100.571 49.4484C100.677 49.267 100.848 49.123 101.083 49.0164C101.323 48.9044 101.643 48.8484 102.043 48.8484H103.491V49.2724H102.059C101.653 49.2724 101.371 49.3444 101.211 49.4884C101.056 49.6324 100.979 49.811 100.979 50.0244C100.979 50.2644 101.072 50.4564 101.259 50.6004C101.445 50.7444 101.707 50.8164 102.043 50.8164C102.363 50.8164 102.637 50.7444 102.867 50.6004C103.101 50.451 103.272 50.2377 103.379 49.9604L103.507 50.3524C103.4 50.6297 103.213 50.851 102.947 51.0164C102.685 51.1817 102.355 51.2644 101.955 51.2644ZM105.459 51.2244V47.0244H106.027V48.8804H108.675V47.0244H109.243V51.2244H108.675V49.3684H106.027V51.2244H105.459ZM110.857 51.2244V47.0244H111.425V50.3604L114.233 47.0244H114.737V51.2244H114.169V47.8804L111.369 51.2244H110.857ZM117.407 51.2724C117.754 51.2724 118.066 51.219 118.343 51.1124C118.626 51.0057 118.85 50.859 119.015 50.6724C119.18 50.4804 119.263 50.259 119.263 50.0084C119.263 49.6884 119.127 49.435 118.855 49.2484C118.588 49.0617 118.215 48.9684 117.735 48.9684L117.711 49.1204C117.983 49.1204 118.226 49.0777 118.439 48.9924C118.652 48.907 118.823 48.787 118.951 48.6324C119.079 48.4777 119.143 48.2964 119.143 48.0884C119.143 47.8537 119.063 47.6537 118.903 47.4884C118.743 47.3177 118.527 47.187 118.255 47.0964C117.988 47.0057 117.687 46.9657 117.351 46.9764C117.106 46.9764 116.86 47.011 116.615 47.0804C116.375 47.1444 116.132 47.2404 115.887 47.3684L116.047 47.8084C116.266 47.6964 116.487 47.6137 116.711 47.5604C116.935 47.5017 117.151 47.4697 117.359 47.4644C117.588 47.4644 117.794 47.491 117.975 47.5444C118.156 47.5977 118.298 47.6777 118.399 47.7844C118.506 47.891 118.559 48.019 118.559 48.1684C118.559 48.307 118.514 48.427 118.423 48.5284C118.338 48.6297 118.215 48.707 118.055 48.7604C117.895 48.8137 117.711 48.8404 117.503 48.8404H116.823V49.2564H117.543C117.895 49.2564 118.172 49.3204 118.375 49.4484C118.578 49.571 118.679 49.7444 118.679 49.9684C118.679 50.123 118.626 50.2617 118.519 50.3844C118.412 50.507 118.263 50.603 118.071 50.6724C117.879 50.7417 117.652 50.779 117.391 50.7844C117.13 50.7844 116.866 50.747 116.599 50.6724C116.332 50.5924 116.098 50.4777 115.895 50.3284L115.711 50.7524C115.94 50.9284 116.204 51.059 116.503 51.1444C116.802 51.2297 117.103 51.2724 117.407 51.2724ZM123.16 51.2244V50.2964L123.136 50.1444V48.5924C123.136 48.235 123.035 47.9604 122.832 47.7684C122.635 47.5764 122.339 47.4804 121.944 47.4804C121.672 47.4804 121.414 47.5257 121.168 47.6164C120.923 47.707 120.715 47.827 120.544 47.9764L120.288 47.5524C120.502 47.371 120.758 47.2324 121.056 47.1364C121.355 47.035 121.67 46.9844 122 46.9844C122.544 46.9844 122.963 47.1204 123.256 47.3924C123.555 47.659 123.704 48.067 123.704 48.6164V51.2244H123.16ZM121.712 51.2644C121.398 51.2644 121.123 51.2137 120.888 51.1124C120.659 51.0057 120.483 50.8617 120.36 50.6804C120.238 50.4937 120.176 50.2804 120.176 50.0404C120.176 49.8217 120.227 49.6244 120.328 49.4484C120.435 49.267 120.606 49.123 120.84 49.0164C121.08 48.9044 121.4 48.8484 121.8 48.8484H123.248V49.2724H121.816C121.411 49.2724 121.128 49.3444 120.968 49.4884C120.814 49.6324 120.736 49.811 120.736 50.0244C120.736 50.2644 120.83 50.4564 121.016 50.6004C121.203 50.7444 121.464 50.8164 121.8 50.8164C122.12 50.8164 122.395 50.7444 122.624 50.6004C122.859 50.451 123.03 50.2377 123.136 49.9604L123.264 50.3524C123.158 50.6297 122.971 50.851 122.704 51.0164C122.443 51.1817 122.112 51.2644 121.712 51.2644ZM125.216 51.2244V47.0244H125.784V50.7284H128.352V47.0244H128.92V51.2244H125.216ZM129.064 52.2404V51.1764L129.208 51.2244H128.352V50.7284H129.6V52.2404H129.064ZM130.685 51.2244V47.0244H131.253V50.3604L134.061 47.0244H134.565V51.2244H133.997V47.8804L131.197 51.2244H130.685ZM138.905 51.2244V49.7124L139.009 49.8324H137.585C137.046 49.8324 136.625 49.715 136.321 49.4804C136.017 49.2457 135.865 48.9044 135.865 48.4564C135.865 47.9764 136.028 47.619 136.353 47.3844C136.678 47.1444 137.113 47.0244 137.657 47.0244H139.425V51.2244H138.905ZM135.833 51.2244L136.985 49.6084H137.577L136.449 51.2244H135.833ZM138.905 49.5444V47.3524L139.009 47.5204H137.673C137.284 47.5204 136.98 47.595 136.761 47.7444C136.548 47.8937 136.441 48.1364 136.441 48.4724C136.441 49.0964 136.838 49.4084 137.633 49.4084H139.009L138.905 49.5444ZM143.138 51.2244V47.0244H146.914V51.2244H146.346V47.3684L146.49 47.5204H143.562L143.706 47.3684V51.2244H143.138ZM150.257 51.2644C149.852 51.2644 149.486 51.1737 149.161 50.9924C148.841 50.8057 148.588 50.5524 148.401 50.2324C148.214 49.907 148.121 49.5364 148.121 49.1204C148.121 48.699 148.214 48.3284 148.401 48.0084C148.588 47.6884 148.841 47.4377 149.161 47.2564C149.481 47.075 149.846 46.9844 150.257 46.9844C150.673 46.9844 151.041 47.075 151.361 47.2564C151.686 47.4377 151.94 47.6884 152.121 48.0084C152.308 48.3284 152.401 48.699 152.401 49.1204C152.401 49.5364 152.308 49.907 152.121 50.2324C151.94 50.5524 151.686 50.8057 151.361 50.9924C151.036 51.1737 150.668 51.2644 150.257 51.2644ZM150.257 50.7604C150.561 50.7604 150.83 50.6937 151.065 50.5604C151.3 50.4217 151.484 50.2297 151.617 49.9844C151.756 49.7337 151.825 49.4457 151.825 49.1204C151.825 48.7897 151.756 48.5017 151.617 48.2564C151.484 48.011 151.3 47.8217 151.065 47.6884C150.83 47.5497 150.564 47.4804 150.265 47.4804C149.966 47.4804 149.7 47.5497 149.465 47.6884C149.23 47.8217 149.044 48.011 148.905 48.2564C148.766 48.5017 148.697 48.7897 148.697 49.1204C148.697 49.4457 148.766 49.7337 148.905 49.9844C149.044 50.2297 149.23 50.4217 149.465 50.5604C149.7 50.6937 149.964 50.7604 150.257 50.7604ZM152.778 51.2244L154.554 48.9204L154.546 49.2004L152.858 47.0244H153.498L154.882 48.8244L154.642 48.8164L156.026 47.0244H156.65L154.946 49.2244L154.954 48.9204L156.746 51.2244H156.098L154.634 49.3044L154.858 49.3364L153.418 51.2244H152.778ZM159.257 51.2644C158.852 51.2644 158.486 51.1737 158.161 50.9924C157.841 50.8057 157.588 50.5524 157.401 50.2324C157.214 49.907 157.121 49.5364 157.121 49.1204C157.121 48.699 157.214 48.3284 157.401 48.0084C157.588 47.6884 157.841 47.4377 158.161 47.2564C158.481 47.075 158.846 46.9844 159.257 46.9844C159.673 46.9844 160.041 47.075 160.361 47.2564C160.686 47.4377 160.94 47.6884 161.121 48.0084C161.308 48.3284 161.401 48.699 161.401 49.1204C161.401 49.5364 161.308 49.907 161.121 50.2324C160.94 50.5524 160.686 50.8057 160.361 50.9924C160.036 51.1737 159.668 51.2644 159.257 51.2644ZM159.257 50.7604C159.561 50.7604 159.83 50.6937 160.065 50.5604C160.3 50.4217 160.484 50.2297 160.617 49.9844C160.756 49.7337 160.825 49.4457 160.825 49.1204C160.825 48.7897 160.756 48.5017 160.617 48.2564C160.484 48.011 160.3 47.8217 160.065 47.6884C159.83 47.5497 159.564 47.4804 159.265 47.4804C158.966 47.4804 158.7 47.5497 158.465 47.6884C158.23 47.8217 158.044 48.011 157.905 48.2564C157.766 48.5017 157.697 48.7897 157.697 49.1204C157.697 49.4457 157.766 49.7337 157.905 49.9844C158.044 50.2297 158.23 50.4217 158.465 50.5604C158.7 50.6937 158.964 50.7604 159.257 50.7604ZM165.471 50.9524V47.5204H163.447L163.399 48.4564C163.389 48.739 163.37 49.0164 163.343 49.2884C163.322 49.5604 163.282 49.811 163.223 50.0404C163.17 50.2644 163.093 50.4484 162.991 50.5924C162.89 50.731 162.759 50.811 162.599 50.8324L162.031 50.7284C162.197 50.7337 162.333 50.675 162.439 50.5524C162.546 50.4244 162.629 50.251 162.687 50.0324C162.746 49.8137 162.789 49.5657 162.815 49.2884C162.842 49.0057 162.863 48.7177 162.879 48.4244L162.935 47.0244H166.039V50.9524H165.471ZM161.855 52.2404V50.7284H166.695V52.2404H166.159V51.2244H162.391V52.2404H161.855ZM169.53 51.2644C169.125 51.2644 168.76 51.1737 168.434 50.9924C168.114 50.8057 167.861 50.5524 167.674 50.2324C167.488 49.907 167.394 49.5364 167.394 49.1204C167.394 48.699 167.488 48.3284 167.674 48.0084C167.861 47.6884 168.114 47.4377 168.434 47.2564C168.754 47.075 169.12 46.9844 169.53 46.9844C169.946 46.9844 170.314 47.075 170.634 47.2564C170.96 47.4377 171.213 47.6884 171.394 48.0084C171.581 48.3284 171.674 48.699 171.674 49.1204C171.674 49.5364 171.581 49.907 171.394 50.2324C171.213 50.5524 170.96 50.8057 170.634 50.9924C170.309 51.1737 169.941 51.2644 169.53 51.2644ZM169.53 50.7604C169.834 50.7604 170.104 50.6937 170.338 50.5604C170.573 50.4217 170.757 50.2297 170.89 49.9844C171.029 49.7337 171.098 49.4457 171.098 49.1204C171.098 48.7897 171.029 48.5017 170.89 48.2564C170.757 48.011 170.573 47.8217 170.338 47.6884C170.104 47.5497 169.837 47.4804 169.538 47.4804C169.24 47.4804 168.973 47.5497 168.738 47.6884C168.504 47.8217 168.317 48.011 168.178 48.2564C168.04 48.5017 167.97 48.7897 167.97 49.1204C167.97 49.4457 168.04 49.7337 168.178 49.9844C168.317 50.2297 168.504 50.4217 168.738 50.5604C168.973 50.6937 169.237 50.7604 169.53 50.7604ZM172.888 51.2244V47.0244H174.744C175.219 47.0244 175.592 47.115 175.864 47.2964C176.142 47.4777 176.28 47.7444 176.28 48.0964C176.28 48.4377 176.15 48.7017 175.888 48.8884C175.627 49.0697 175.283 49.1604 174.856 49.1604L174.968 48.9924C175.47 48.9924 175.838 49.0857 176.072 49.2724C176.307 49.459 176.424 49.7284 176.424 50.0804C176.424 50.443 176.291 50.7257 176.024 50.9284C175.763 51.1257 175.355 51.2244 174.8 51.2244H172.888ZM173.44 50.7764H174.776C175.134 50.7764 175.403 50.7204 175.584 50.6084C175.771 50.491 175.864 50.3044 175.864 50.0484C175.864 49.7924 175.782 49.6057 175.616 49.4884C175.451 49.371 175.19 49.3124 174.832 49.3124H173.44V50.7764ZM173.44 48.8884H174.704C175.03 48.8884 175.278 48.827 175.448 48.7044C175.624 48.5817 175.712 48.403 175.712 48.1684C175.712 47.9337 175.624 47.7577 175.448 47.6404C175.278 47.523 175.03 47.4644 174.704 47.4644H173.44V48.8884ZM179.849 51.2244V47.0244H181.705C182.18 47.0244 182.553 47.115 182.825 47.2964C183.103 47.4777 183.241 47.7444 183.241 48.0964C183.241 48.4377 183.111 48.7017 182.849 48.8884C182.588 49.0697 182.244 49.1604 181.817 49.1604L181.929 48.9924C182.431 48.9924 182.799 49.0857 183.033 49.2724C183.268 49.459 183.385 49.7284 183.385 50.0804C183.385 50.443 183.252 50.7257 182.985 50.9284C182.724 51.1257 182.316 51.2244 181.761 51.2244H179.849ZM180.401 50.7764H181.737C182.095 50.7764 182.364 50.7204 182.545 50.6084C182.732 50.491 182.825 50.3044 182.825 50.0484C182.825 49.7924 182.743 49.6057 182.577 49.4884C182.412 49.371 182.151 49.3124 181.793 49.3124H180.401V50.7764ZM180.401 48.8884H181.665C181.991 48.8884 182.239 48.827 182.409 48.7044C182.585 48.5817 182.673 48.403 182.673 48.1684C182.673 47.9337 182.585 47.7577 182.409 47.6404C182.239 47.523 181.991 47.4644 181.665 47.4644H180.401V48.8884ZM186.81 51.2244V47.0244H189.786V47.5204H187.234L187.378 47.3764V51.2244H186.81ZM192.14 51.2644C191.734 51.2644 191.369 51.1737 191.044 50.9924C190.724 50.8057 190.47 50.5524 190.284 50.2324C190.097 49.907 190.004 49.5364 190.004 49.1204C190.004 48.699 190.097 48.3284 190.284 48.0084C190.47 47.6884 190.724 47.4377 191.044 47.2564C191.364 47.075 191.729 46.9844 192.14 46.9844C192.556 46.9844 192.924 47.075 193.244 47.2564C193.569 47.4377 193.822 47.6884 194.004 48.0084C194.19 48.3284 194.284 48.699 194.284 49.1204C194.284 49.5364 194.19 49.907 194.004 50.2324C193.822 50.5524 193.569 50.8057 193.244 50.9924C192.918 51.1737 192.55 51.2644 192.14 51.2644ZM192.14 50.7604C192.444 50.7604 192.713 50.6937 192.948 50.5604C193.182 50.4217 193.366 50.2297 193.5 49.9844C193.638 49.7337 193.708 49.4457 193.708 49.1204C193.708 48.7897 193.638 48.5017 193.5 48.2564C193.366 48.011 193.182 47.8217 192.948 47.6884C192.713 47.5497 192.446 47.4804 192.148 47.4804C191.849 47.4804 191.582 47.5497 191.348 47.6884C191.113 47.8217 190.926 48.011 190.788 48.2564C190.649 48.5017 190.58 48.7897 190.58 49.1204C190.58 49.4457 190.649 49.7337 190.788 49.9844C190.926 50.2297 191.113 50.4217 191.348 50.5604C191.582 50.6937 191.846 50.7604 192.14 50.7604ZM197.666 51.2644C197.303 51.2644 196.975 51.1817 196.682 51.0164C196.388 50.8457 196.154 50.603 195.978 50.2884C195.807 49.9684 195.722 49.579 195.722 49.1204C195.722 48.6617 195.807 48.275 195.978 47.9604C196.148 47.6404 196.38 47.3977 196.674 47.2324C196.967 47.067 197.298 46.9844 197.666 46.9844C198.066 46.9844 198.423 47.075 198.738 47.2564C199.058 47.4324 199.308 47.683 199.49 48.0084C199.671 48.3284 199.762 48.699 199.762 49.1204C199.762 49.547 199.671 49.9204 199.49 50.2404C199.308 50.5604 199.058 50.811 198.738 50.9924C198.423 51.1737 198.066 51.2644 197.666 51.2644ZM195.498 52.7764V47.0244H196.042V48.2884L195.986 49.1284L196.066 49.9764V52.7764H195.498ZM197.626 50.7604C197.924 50.7604 198.191 50.6937 198.426 50.5604C198.66 50.4217 198.847 50.2297 198.986 49.9844C199.124 49.7337 199.194 49.4457 199.194 49.1204C199.194 48.795 199.124 48.5097 198.986 48.2644C198.847 48.019 198.66 47.827 198.426 47.6884C198.191 47.5497 197.924 47.4804 197.626 47.4804C197.327 47.4804 197.058 47.5497 196.818 47.6884C196.583 47.827 196.396 48.019 196.258 48.2644C196.124 48.5097 196.058 48.795 196.058 49.1204C196.058 49.4457 196.124 49.7337 196.258 49.9844C196.396 50.2297 196.583 50.4217 196.818 50.5604C197.058 50.6937 197.327 50.7604 197.626 50.7604ZM205.078 51.2244V47.0244H205.646V51.2244H205.078ZM202.75 48.5044C203.278 48.5097 203.681 48.627 203.958 48.8564C204.235 49.0857 204.374 49.4164 204.374 49.8484C204.374 50.2964 204.225 50.6404 203.926 50.8804C203.627 51.1204 203.201 51.2377 202.646 51.2324L200.982 51.2244V47.0244H201.55V48.4884L202.75 48.5044ZM202.606 50.8004C203.001 50.8057 203.297 50.7284 203.494 50.5684C203.697 50.403 203.798 50.163 203.798 49.8484C203.798 49.5337 203.699 49.3044 203.502 49.1604C203.305 49.011 203.006 48.9337 202.606 48.9284L201.55 48.9124V50.7844L202.606 50.8004Z" fill="white"/>
<defs>
<clipPath id="clip0_2_1032">
<rect width="61.8683" height="62" fill="white"/>
</clipPath>
</defs>
</svg>
